#!OML:ASF X:\für Bonn\!DataBase\2005_08_10_Bjorn_Final\c3d\bjorn.ASF
:FULLY-SPECIFIED
:DEGREES
80
root -19.0791 19.1353 -1.06435 1249.33 247.634 -170.226
lowerback -7.09442 3.02798 -2.51143
upperback 7.79907 4.77198 -4.66215
thorax 12.6991 2.25118 -2.85363
lowerneck -0.400327 -9.59268 2.55421
upperneck 6.50616 -13.1748 3.82466
head 2.22515 -6.43571 0.505243
rclavicle -7.27552e-014 5.1684e-014
rhumerus 42.6007 -7.96032 -47.2744
rradius 50.0022
rwrist -21.9564
rhand -27.1153 19.8021
rfingers 7.12502
rthumb -0.531482 -10.177
lclavicle -7.27552e-014 5.1684e-014
lhumerus -24.3728 -2.87809 85.1118
lradius 34.9049
lwrist -18.0468
lhand -19.4952 -6.68383
lfingers 7.12502
lthumb 6.82715 23.1861
rfemur -17.9724 -3.12896 9.75288
rtibia 32.0928
rfoot -6.31356 12.4749
rtoes -5.07934
lfemur 3.46161 -2.67867 -18.6602
ltibia 20.8216
lfoot -12.3824 -14.5452
ltoes -3.51615
81
root -19.1637 19.1342 -1.08149 1249.68 247.208 -170.497
lowerback -7.1965 3.07599 -2.34817
upperback 7.77022 4.82135 -4.62249
thorax 12.7407 2.28888 -2.88717
lowerneck -0.452988 -9.68323 2.68149
upperneck 6.64011 -13.311 3.83996
head 2.27243 -6.49629 0.480888
rclavicle -1.09332e-014 -9.54166e-015
rhumerus 42.6808 -7.86023 -46.4382
rradius 49.5418
rwrist -21.9673
rhand -26.9501 19.2121
rfingers 7.12502
rthumb -0.371881 -10.7673
lclavicle -1.09332e-014 -9.54166e-015
lhumerus -24.5932 -2.27248 85.0249
lradius 34.2705
lwrist -18.6888
lhand -19.3546 -6.50638
lfingers 7.12502
lthumb 6.96285 23.3591
rfemur -17.8061 -3.29734 9.89625
rtibia 32.2896
rfoot -6.86804 12.4421
rtoes -5.45752
lfemur 3.46749 -2.97835 -18.5256
ltibia 21.0209
lfoot -12.4411 -14.3373
ltoes -3.97837
82
root -19.2466 19.1333 -1.09885 1250.01 246.782 -170.756
lowerback -7.31015 3.12236 -2.20261
upperback 7.75639 4.8713 -4.58098
thorax 12.8057 2.32472 -2.90816
lowerneck -0.505692 -9.7849 2.87231
upperneck 6.72726 -13.457 3.80538
head 2.29561 -6.56249 0.43327
rclavicle 3.18055e-014 -7.4743e-014
rhumerus 42.7422 -7.76714 -45.5779
rradius 49.1084
rwrist -21.9835
rhand -26.6673 18.562
rfingers 7.12502
rthumb -0.0988032 -11.4177
lclavicle 3.18055e-014 -7.4743e-014
lhumerus -24.7809 -1.68269 84.9163
lradius 33.6043
lwrist -19.3756
lhand -19.2317 -6.41272
lfingers 7.12502
lthumb 7.08152 23.4488
rfemur -17.6323 -3.45888 10.0342
rtibia 32.4578
rfoot -7.35583 12.3654
rtoes -5.63827
lfemur 3.45665 -3.21561 -18.381
ltibia 21.2325
lfoot -12.4989 -14.1638
ltoes -4.39133
83
root -19.3263 19.1342 -1.11661 1250.28 246.371 -170.954
lowerback -7.376 3.17145 -2.05642
upperback 7.72761 4.9242 -4.57797
thorax 12.8283 2.36449 -2.97334
lowerneck -0.61047 -9.87631 3.10045
upperneck 6.90325 -13.6001 3.78188
head 2.35553 -6.623 0.377679
rclavicle 3.4191e-014 -1.66979e-014
rhumerus 42.7445 -7.67279 -44.7938
rradius 48.7619
rwrist -21.9653
rhand -26.2541 17.7563
rfingers 7.12502
rthumb 0.300365 -12.2232
lclavicle 3.4191e-014 -1.66979e-014
lhumerus -24.9609 -1.11592 84.7279
lradius 32.9039
lwrist -20.0499
lhand -18.9962 -6.3639
lfingers 7.12502
lthumb 7.30882 23.4899
rfemur -17.4581 -3.53866 10.1591
rtibia 32.5879
rfoot -7.8103 12.2115
rtoes -5.60188
lfemur 3.42639 -3.50411 -18.2695
ltibia 21.4581
lfoot -12.4976 -13.9391
ltoes -4.68296
84
root -19.4045 19.1368 -1.13519 1250.56 245.984 -171.144
lowerback -7.43522 3.20926 -1.93083
upperback 7.68199 4.96281 -4.57252
thorax 12.8246 2.39551 -3.02711
lowerneck -0.655047 -9.95639 3.31662
upperneck 7.00675 -13.7222 3.77783
head 2.38285 -6.67565 0.335931
rclavicle 3.37934e-014 -4.05521e-014
rhumerus 42.7019 -7.4892 -43.9388
rradius 48.4789
rwrist -21.9152
rhand -25.7463 16.9335
rfingers 7.12502
rthumb 0.790754 -13.0448
lclavicle 3.37934e-014 -4.05521e-014
lhumerus -25.178 -0.598977 84.5163
lradius 32.2107
lwrist -20.7137
lhand -18.7388 -6.38155
lfingers 7.12502
lthumb 7.55729 23.4634
rfemur -17.3008 -3.59095 10.2984
rtibia 32.6957
rfoot -8.24563 12.0121
rtoes -5.74209
lfemur 3.367 -3.72634 -18.1417
ltibia 21.6925
lfoot -12.4979 -13.7265
ltoes -5.00178
85
root -19.4792 19.1394 -1.15346 1250.82 245.613 -171.319
lowerback -7.47329 3.23022 -1.8332
upperback 7.63022 4.97853 -4.54735
thorax 12.7945 2.41197 -3.04867
lowerneck -0.663117 -10.0275 3.46508
upperneck 7.11934 -13.8302 3.78299
head 2.41224 -6.72268 0.309098
rclavicle -5.38706e-014 -1.43125e-014
rhumerus 42.6847 -7.25248 -43.1146
rradius 48.2082
rwrist -21.7623
rhand -24.9882 16.0192
rfingers 7.12502
rthumb 1.52301 -13.9551
lclavicle -5.38706e-014 -1.43125e-014
lhumerus -25.4285 -0.0465163 84.304
lradius 31.5319
lwrist -21.3633
lhand -18.4844 -6.32852
lfingers 7.12502
lthumb 7.80286 23.5075
rfemur -17.1428 -3.6014 10.4371
rtibia 32.7778
rfoot -8.60693 11.7862
rtoes -5.45417
lfemur 3.28507 -3.89966 -18.0117
ltibia 21.9297
lfoot -12.4671 -13.5263
ltoes -5.36648
